<svg version="1.1" xmlns="http://www.w3.org/2000/svg" viewBox="0 0 795.52734375 211.9921875">
  <!-- svg-source:excalidraw -->
  <defs>
    <style>
      @font-face {
        font-family: "Virgil";
        src: url("https://excalidraw.com/FG_Virgil.woff2");
      }
      @font-face {
        font-family: "Cascadia";
        src: url("https://excalidraw.com/Cascadia.woff2");
      }
    </style>
  </defs>
  <g transform="translate(10 134.36328125) rotate(0 55.73046875 33.671875)"><path d="M1.6255224030464888 1.5919174570590258 C35.452001544852834 2.642617343762322, 70.31220070313867 1.3864222157983022, 111.96925255469978 0.8760054130107164 M0.9835091242566705 0.968936993740499 C42.23206897991841 -0.83106990649052, 85.84653555097321 -1.0079283018285785, 110.82698342297226 0.4027477940544486 M113.08251902274787 -0.638315437361598 C111.54678408783074 13.106263750916696, 111.97867177408334 26.486587034043623, 113.2034384291619 67.60610157437623 M111.70181915257126 -0.40174873266369104 C111.08013222857699 20.196896492052474, 112.66420812650904 39.23626036758651, 111.7460085162893 68.00677730049938 M109.74817767553031 66.7142630238086 C65.01302909294972 65.85709190198185, 22.019974550286122 66.637376723969, 0.6518405359238386 68.3382595796138 M111.94600141141564 67.8638179441914 C67.23280144013333 67.68312261323598, 23.547922735025338 68.62184382300046, -0.04575797822326422 66.56038318481296 M-0.7972404081374407 67.75200879760087 C-0.6048062483794638 47.94919454983028, 1.1665170152657083 26.61476599847083, -1.9509830195456743 0.09866351075470448 M0.6725073168054223 67.94443951454014 C-0.3257233734926558 51.05011143766751, -0.17164968808501724 36.897954648331506, -0.45807558204978704 0.23357887472957373" style="stroke: rgb(0, 0, 0); stroke-width: 1; fill: none;"></path></g><g transform="translate(183.06640625 134.6484375) rotate(0 55.73046875 33.671875)"><path d="M1.971917537972331 -1.5685245376080275 C36.916197753763846 0.4158829723488453, 71.36844115009735 -0.15477672470697135, 110.18683680705726 1.8854509610682726 M0.10046410653740168 -0.4971133330836892 C36.64303169114646 0.4745277922026434, 73.80559534661734 0.40335749195735837, 112.20350375864655 0.4158711275085807 M110.04726514033973 0.6215268392115831 C112.52606051871699 25.017662471844236, 112.00538396546763 47.11240841026302, 109.7597105782479 67.41901010461152 M110.54679957125336 -0.35195852909237146 C111.76229440735042 22.85994020245562, 110.42644270823658 47.13053854185273, 111.8878467688337 66.68106587138027 M111.89438512735069 66.29416984505951 C82.48246924837949 66.10744481564929, 53.29470307338779 66.57741545916964, 1.1763171833008528 65.35050511546433 M111.98647552821785 67.58991010393947 C77.99248672258909 69.31267000029482, 44.4645022886034 68.54836348483957, 0.889413327910006 68.21450154390186 M-1.4963050205260515 67.20410418696702 C-0.9643765671193251 48.39086769732239, 1.026013316398894 25.9760706150264, 0.20637097768485546 1.7334638256579638 M-0.9853847315534949 67.83737318124622 C-0.49087756357475887 47.486418358501396, 0.18284372009948124 26.374522030324442, -0.3753842106088996 -0.17123030219227076" style="stroke: rgb(0, 0, 0); stroke-width: 1; fill: none;"></path></g><g transform="translate(346.091796875 134.337890625) rotate(0 55.73046875 33.671875)"><path d="M1.4240851420909166 -1.9861061293631792 C42.182200372164516 -0.5511543231286486, 82.81800305646175 0.5515307111464063, 110.96588832326233 -0.5188103038817644 M-0.5828876057639718 -0.5676178326830268 C36.78799184676827 -0.15298431236027688, 73.19150889543089 0.40601090472460777, 111.37378372158855 0.9999623009935021 M110.29383737035096 -1.0903582889586687 C111.41103832607477 14.673074029866259, 113.34245382433146 28.713085251889428, 111.37903845496476 65.99494710378349 M110.79427041020244 -0.6870916178449988 C111.37854717052687 20.24535472247226, 112.90301896012534 40.00870411607321, 112.43168114032596 68.11001217458397 M111.20984089560807 66.6595593970269 C76.76706604548599 68.40637791613736, 39.956495251150045 69.59349364499249, 0.017455996945500374 65.96217855624855 M111.76492570247501 67.15827167127281 C89.02569035552806 67.31776814027886, 64.28460774143022 67.03227139874558, 0.03214199747890234 66.87011030409485 M-0.3564077001065016 67.18765815906227 C1.4705798902796232 42.42690726973524, -1.6433117708875216 13.240953057043946, -1.926659343764186 -1.7731828410178423 M0.9639354487881064 67.47179845068604 C-1.3712196341264642 52.42794520758616, -0.5594153097379603 35.23873769355123, 0.2543594082817435 0.1829971680417657" style="stroke: rgb(0, 0, 0); stroke-width: 1; fill: none;"></path></g><g transform="translate(514.158203125 134.623046875) rotate(0 55.73046875 33.671875)"><path d="M-1.9861061293631792 0.6710295099765062 C29.428539753352386 -0.9979879930006428, 60.69428846504744 -1.2886985018240376, 110.94212719611824 0.5078213233500719 M-0.5676178326830268 0.51959855761379 C38.793497851296706 1.3044143070777499, 78.6040163444195 0.5625382115443789, 112.4608998009935 -0.8197687426581979 M110.37057921104133 -0.6849663238972425 C111.90291295554634 27.800245674079633, 111.26042930390831 53.02569395440514, 110.11213460378349 67.27914673276246 M110.773845882155 -0.5994849959388375 C112.10984350263462 26.299058458316726, 111.88759921013698 51.71888696964016, 112.22719967458397 67.5851793428883 M110.7767468970269 68.77915388531983 C78.00445665421793 67.95792111617476, 45.35414326382596 67.22126868230254, -1.3815714437514544 65.50858867354691 M111.27545917127281 68.11934401001781 C84.69758919492233 66.92793065077778, 56.95028657849616 67.71472009784695, -0.473639695905149 68.28198896255344 M-0.15609184093773365 68.63449609465897 C1.7525086876921705 47.11581738969835, -0.9118675115532824 28.607516568648855, -1.7731828410178423 -1.308918772265315 M0.12804845068603754 66.37051306571811 C0.3351660814383649 42.99936539166083, -1.058291361083684 19.23220541139017, 0.1829971680417657 -0.5437014559283853" style="stroke: rgb(0, 0, 0); stroke-width: 1; fill: none;"></path></g><g transform="translate(674.06640625 132.6484375) rotate(0 55.73046875 33.671875)"><path d="M-1.4143843371421099 -1.7463381867855787 C41.62410200305385 -1.6092446326879872, 87.0505564066043 0.29931701425033674, 112.46132060699165 1.4929575938731432 M-0.0753625025972724 0.17663712706416845 C25.841639266434505 0.611381964463144, 49.98062685242185 0.5729093418301636, 111.54783973190933 0.8576364954933524 M111.215517250821 1.3191518802195787 C112.48735735789087 25.918985262265778, 113.10006932392862 52.88234594228561, 111.2929719965905 67.48093491978943 M111.10172209236771 0.31305818166583776 C111.45129646907881 13.166325398269693, 112.22126637946204 28.03196653912892, 111.93406224343926 67.54824055638164 M110.68371954374015 66.25578338094056 C66.04508673225428 68.72998348608577, 21.36217100756039 69.00656805172527, 1.2731657903641462 68.3296166677028 M111.88243770692497 67.58023847546428 C73.26707363022359 65.92838142622415, 35.73142242125904 66.10924817431871, 0.3474082062020898 67.08527158107609 M1.687671272084117 68.9237247724086 C-0.5926272262833663 38.72111318378302, 2.363914848396962 15.105295494693564, 0.003647593781352043 0.07299941964447498 M0.4771420070901513 67.46557424869388 C0.27097905709088077 47.50501002416422, -1.0982817606753088 28.537959860608673, -0.24297565128654242 -0.6776632526889443" style="stroke: rgb(0, 0, 0); stroke-width: 1; fill: none;"></path></g><g transform="translate(101.6171875 10) rotate(0 55.73046875 33.671875)"><path d="M0.30019584111869335 -1.2465533595532179 C33.269321195009255 -0.5585261328235356, 65.87214215131681 2.0704220192417413, 111.99624761752784 -0.04531681351363659 M0.20199763868004084 0.6280167242512107 C37.28750636898112 -0.18837799160894053, 72.22897308420652 0.08065022499147756, 111.36653402540833 -0.95012201461941 M112.39067253284156 -0.760229704901576 C110.46246099425625 24.52366865867225, 111.4461560840733 49.11872615615721, 113.34279539994895 66.50643843598664 M111.31343701574951 0.004124744795262814 C111.19456482154638 14.21250927030633, 112.39015767199308 28.593240864604017, 112.32303661201149 67.72998590674251 M113.35716965608299 68.36615628190339 C78.66924823790686 68.83016686797572, 44.06558394558523 68.85863207936717, 1.3795115631073713 65.74641275592148 M112.39929598663002 66.84625811781734 C83.53348636302034 67.86385026599899, 56.12745552511623 67.68608015801445, 0.5192480990663171 67.96874003019184 M-1.755207808688283 65.70761680789292 C-1.8393761642291793 42.12345997641387, -0.680063856394554 13.065916380408453, -1.3192020375281572 0.7984464783221483 M0.3398540923371911 66.44064120855182 C-0.07965445655718217 42.018501070779166, -0.5700452639473952 14.06625438851188, -0.7182629099115729 0.7310756584629416" style="stroke: rgb(0, 0, 0); stroke-width: 1; fill: none;"></path></g><g><g transform="translate(132.55529409758748 169.07418484843072) rotate(0 20.312397409603022 1.112293807301171)"><path d="M-0.2962684024125337 0.42794714458286753 C6.667561383172872 0.378289603617793, 34.11412392370404 0.6897334472686338, 40.921063221618546 0.5793455443650828 M1.2945349009986966 1.314206108087674 C8.063192146336661 1.5008582829300372, 32.894259523367516 2.0752648031655987, 39.547490562116735 1.6534987326924102" style="stroke: rgb(0, 0, 0); stroke-width: 1; fill: none;"></path></g><g transform="translate(132.55529409758748 169.07418484843072) rotate(0 20.312397409603022 1.112293807301171)"><path d="M21.43809366722738 9.885225780185388 C25.79832424665709 7.669372095512868, 28.73694662080337 4.435003135461693, 40.13064431472682 3.0682909742210405 M21.232757754932695 8.115403403405177 C27.487374933517813 5.850028906374382, 34.17029988695507 2.513499226610164, 40.06264963353985 0.8970353977967398" style="stroke: rgb(0, 0, 0); stroke-width: 1; fill: none;"></path></g><g transform="translate(132.55529409758748 169.07418484843072) rotate(0 20.312397409603022 1.112293807301171)"><path d="M21.2325182035099 -3.891360504899538 C25.740372967874638 -2.963251853472122, 28.725902258058547 -3.0541660233751156, 40.13064431472682 3.0682909742210405 M21.027182291215215 -5.66118288167975 C27.302755936739043 -2.8059890849055145, 34.062116836946764 -1.0201836526712764, 40.06264963353985 0.8970353977967398" style="stroke: rgb(0, 0, 0); stroke-width: 1; fill: none;"></path></g></g><g><g transform="translate(127.25802886149847 87.83286140449354) rotate(0 -12.968405261719596 18.149667279794812)"><path d="M1.135042084380984 0.01645515449345103 C-3.142246521338822 6.019471930339936, -22.266425093635924 30.000822483375686, -26.82357781983913 36.282879405096196 M1.59787261149846 0.06882964217104015 C-2.7308412619773317 6.142746568853039, -22.88871138983407 29.41901870273987, -27.53468313493767 35.79821428352038" style="stroke: rgb(0, 0, 0); stroke-width: 1; fill: none;"></path></g><g transform="translate(127.25802886149847 87.83286140449354) rotate(0 -12.968405261719596 18.149667279794812)"><path d="M-20.187907104990053 14.0479726205348 C-22.76402177748903 19.53460542862993, -21.875854786865997 21.34751653026464, -28.239915131190802 37.54452314854602 M-19.96812880286442 14.966394526953898 C-22.497714825561545 20.11807842261585, -24.69571991226274 27.360947117369506, -27.075779225276793 35.54883752365599" style="stroke: rgb(0, 0, 0); stroke-width: 1; fill: none;"></path></g><g transform="translate(127.25802886149847 87.83286140449354) rotate(0 -12.968405261719596 18.149667279794812)"><path d="M-8.019410501391093 23.804994810670685 C-13.091470892031312 27.42267267373665, -14.677720851721224 27.251530865769418, -28.239915131190802 37.54452314854602 M-7.79963219926546 24.723416717089783 C-13.982649948918116 26.834863826501692, -19.876971954785624 31.113927921810102, -27.075779225276793 35.54883752365599" style="stroke: rgb(0, 0, 0); stroke-width: 1; fill: none;"></path></g></g><g><g transform="translate(191.5 91.234375) rotate(0 10.594697735910302 16.11206637627913)"><path d="M0.3332673478871584 -0.051850138977169946 C4.128679041936994 5.598585423951348, 18.94240414388478 27.853189878786605, 22.783347683027387 33.371319914981726 M-1.593952211206779 -1.1471871624235064 C2.0769944622460756 4.282239163632815, 18.575818423563614 25.9738842559016, 22.369888904923574 31.482642065798863" style="stroke: rgb(0, 0, 0); stroke-width: 1; fill: none;"></path></g><g transform="translate(191.5 91.234375) rotate(0 10.594697735910302 16.11206637627913)"><path d="M5.962896715761474 21.062113592815674 C12.64003586381303 25.297424673359565, 17.03603623308223 27.43480212091329, 21.19395294702423 29.76917786206785 M5.36478268288263 20.280621533881003 C9.504134167497087 22.92506766402595, 13.32792737515498 26.663271566451098, 22.131102840219356 30.926708882712617" style="stroke: rgb(0, 0, 0); stroke-width: 1; fill: none;"></path></g><g transform="translate(191.5 91.234375) rotate(0 10.594697735910302 16.11206637627913)"><path d="M16.840024413702526 13.139625750560992 C20.20908918903438 19.7890728637756, 21.332091568900818 24.31037808149568, 21.19395294702423 29.76917786206785 M16.241910380823683 12.358133691626321 C17.79689086367502 16.83312550246716, 19.03940921873306 22.451432241334235, 22.131102840219356 30.926708882712617" style="stroke: rgb(0, 0, 0); stroke-width: 1; fill: none;"></path></g></g><g><g transform="translate(298.24449521899237 169.11980357601624) rotate(0 20.088604312017566 -0.2788087899271545)"><path d="M-0.8779923867434263 0.02949950806796542 C6.047306882217529 0.07327398824394313, 34.19116921313108 0.1428993800133752, 41.05520101077856 0.3445660873622045 M0.6775843884889037 -1.7439832521323115 C7.52720755630173 -1.521287293267617, 33.32615380250849 0.8540132173653978, 40.128883383208894 1.186365672278066" style="stroke: rgb(0, 0, 0); stroke-width: 1; fill: none;"></path></g><g transform="translate(298.24449521899237 169.11980357601624) rotate(0 20.088604312017566 -0.2788087899271545)"><path d="M20.804063458559437 7.980898639205108 C26.201348426482852 5.4493471360607115, 32.703348868206064 2.929270718598386, 39.96515651882627 1.9268950586047366 M21.415834666793568 6.7888913089588385 C23.779373087832177 5.686185710449668, 29.652005378270538 4.265477375642044, 40.32900938947686 1.4688142332088545" style="stroke: rgb(0, 0, 0); stroke-width: 1; fill: none;"></path></g><g transform="translate(298.24449521899237 169.11980357601624) rotate(0 20.088604312017566 -0.2788087899271545)"><path d="M21.79499196460817 -5.761541160101734 C26.945387274396726 -4.746312740506049, 33.19111664330948 -3.7123590045273103, 39.96515651882627 1.9268950586047366 M22.4067631728423 -6.953548490348004 C24.555776062258285 -5.237184543605611, 30.22556492211752 -3.8448103841636776, 40.32900938947686 1.4688142332088545" style="stroke: rgb(0, 0, 0); stroke-width: 1; fill: none;"></path></g></g><g><g transform="translate(465.72496396899237 168.91667857601624) rotate(0 19.819714024881876 0.41654924380520697)"><path d="M-0.2318941701203585 -0.16348587982356544 C6.304981727525594 -0.10426814613043683, 33.132219774648554 -0.8054456098526429, 39.85754209868611 -0.6487795271604909 M0.02108519813977172 0.32359940492548045 C6.86554450265132 0.7714499478403536, 33.001665953015916 1.6910303610507686, 39.871322219884036 1.4714508178297776" style="stroke: rgb(0, 0, 0); stroke-width: 1; fill: none;"></path></g><g transform="translate(465.72496396899237 168.91667857601624) rotate(0 19.819714024881876 0.41654924380520697)"><path d="M20.62743821020425 7.527253158932192 C26.438091371000713 5.612388271977501, 35.510935085069036 2.1908932658441893, 38.542740318616865 1.4944947502229708 M21.421540762551135 7.651557495427889 C26.02090501153034 5.609848198857906, 32.14719873440952 3.5750316676684113, 40.29951483632439 0.7572390102435249" style="stroke: rgb(0, 0, 0); stroke-width: 1; fill: none;"></path></g><g transform="translate(465.72496396899237 168.91667857601624) rotate(0 19.819714024881876 0.41654924380520697)"><path d="M20.715961013674384 -6.250582471345105 C26.380079085687115 -3.30171325666441, 35.421672135078666 -1.8593030951452736, 38.542740318616865 1.4944947502229708 M21.51006356602127 -6.126278134849407 C26.050201982511755 -3.7903301478056344, 32.14837351317365 -1.448162142309819, 40.29951483632439 0.7572390102435249" style="stroke: rgb(0, 0, 0); stroke-width: 1; fill: none;"></path></g></g><g><g transform="translate(630.2405889689924 168.74089732601624) rotate(0 20.199927700823196 0.21833383345642687)"><path d="M-0.9765470255166292 -0.501468713209033 C5.554946715757253 -0.24432121572195908, 33.29524132721127 0.807918144896655, 40.28819174878301 0.8404802999765024 M-1.4824106062296778 -0.7823733127769084 C5.314301114892589 -0.5781205539043935, 34.75124324969017 1.0367181238476475, 41.882266007876034 1.2190409796897668" style="stroke: rgb(0, 0, 0); stroke-width: 1; fill: none;"></path></g><g transform="translate(630.2405889689924 168.74089732601624) rotate(0 20.199927700823196 0.21833383345642687)"><path d="M21.845141816084617 7.309624651503563 C31.502121319035147 6.2381793065186795, 37.110453986311654 3.898722044491916, 41.875188878318305 -0.40107990143556416 M23.23790599977725 7.429535678644479 C27.058776583562228 4.980454280258378, 32.74685895728658 4.486276694902962, 42.53068434591406 1.0206364133049148" style="stroke: rgb(0, 0, 0); stroke-width: 1; fill: none;"></path></g><g transform="translate(630.2405889689924 168.74089732601624) rotate(0 20.199927700823196 0.21833383345642687)"><path d="M22.426462721666734 -6.456226464442954 C31.775218885909972 -2.141661626172755, 37.155904867113435 0.9096220217323729, 41.875188878318305 -0.40107990143556416 M23.81922690535937 -6.336315437302039 C27.610747323184583 -5.240551922256525, 33.1492864286598 -2.1935006504660612, 42.53068434591406 1.0206364133049148" style="stroke: rgb(0, 0, 0); stroke-width: 1; fill: none;"></path></g></g><g transform="translate(41.73046875 143.03515625) rotate(0 24 25)"><text x="24" y="18" font-family="Virgil" font-size="20px" fill="#000000" text-anchor="middle">Build</text><text x="24" y="43" font-family="Virgil" font-size="20px" fill="#000000" text-anchor="middle">DOM</text></g><g transform="translate(121.84765625 31.171875) rotate(0 35.5 12.5)"><text x="0" y="18" font-family="Virgil" font-size="20px" fill="#000000" text-anchor="start">Run JS</text></g><g transform="translate(204.296875 143.3203125) rotate(0 34.5 25)"><text x="34.5" y="18" font-family="Virgil" font-size="20px" fill="#000000" text-anchor="middle">Build </text><text x="34.5" y="43" font-family="Virgil" font-size="20px" fill="#000000" text-anchor="middle">CSSOM</text></g><g transform="translate(364.822265625 143.009765625) rotate(0 37 25)"><text x="37" y="18" font-family="Virgil" font-size="20px" fill="#000000" text-anchor="middle">Render </text><text x="37" y="43" font-family="Virgil" font-size="20px" fill="#000000" text-anchor="middle">Tree</text></g><g transform="translate(536.388671875 155.794921875) rotate(0 33.5 12.5)"><text x="33.5" y="18" font-family="Virgil" font-size="20px" fill="#000000" text-anchor="middle">Layout</text></g><g transform="translate(705.296875 153.8203125) rotate(0 24.5 12.5)"><text x="24.5" y="18" font-family="Virgil" font-size="20px" fill="#000000" text-anchor="middle">Paint</text></g></svg>